<?xml version="1.0" standalone="no"?>
<!DOCTYPE svg PUBLIC "-//W3C//DTD SVG 20010904//EN"
 "http://www.w3.org/TR/2001/REC-SVG-20010904/DTD/svg10.dtd">
<svg version="1.0" xmlns="http://www.w3.org/2000/svg"
 width="500.000000pt" height="500.000000pt" viewBox="0 0 500.000000 500.000000"
 preserveAspectRatio="xMidYMid meet">

<g transform="translate(0.000000,500.000000) scale(0.100000,-0.100000)"
fill="#000000" stroke="none">
<path d="M2430 4661 c89 -16 206 -23 194 -11 -7 6 -60 13 -125 15 -79 3 -100
2 -69 -4z"/>
<path d="M2280 4610 c-122 -26 -57 -38 201 -39 203 -1 301 -15 509 -70 146
-39 240 -75 400 -155 210 -104 360 -209 530 -370 61 -58 71 -66 35 -26 -239
265 -592 478 -970 585 -210 60 -585 100 -705 75z"/>
<path d="M2048 4559 c-2 -6 -61 -26 -132 -44 -207 -55 -277 -82 -408 -157
-141 -81 -185 -101 -199 -92 -23 14 227 155 380 215 126 49 81 47 -72 -5 -162
-54 -309 -122 -454 -210 -107 -64 -185 -123 -150 -112 25 8 21 -2 -13 -30 -28
-24 -112 -135 -192 -254 -43 -64 -54 -78 -88 -105 l-24 -20 15 25 c9 14 37 63
64 110 26 47 64 108 84 135 61 82 59 83 -22 11 -297 -267 -518 -647 -594
-1021 -26 -129 -26 -506 0 -655 24 -137 67 -305 116 -460 22 -69 45 -161 51
-204 23 -169 160 -397 360 -596 275 -275 598 -447 1089 -580 185 -50 295 -70
381 -70 109 0 161 29 144 83 -17 57 -73 88 -264 145 -227 68 -630 210 -719
252 -374 179 -677 479 -857 847 -210 431 -237 923 -77 1403 166 499 556 935
1002 1121 304 127 603 191 896 192 309 1 598 -69 900 -218 394 -194 750 -531
975 -925 49 -86 48 -85 55 -79 9 10 -26 132 -54 187 -98 190 -407 541 -613
695 -278 209 -568 317 -1018 378 -339 46 -554 61 -562 38z m-1471 -896 c-3
-10 -8 -30 -11 -45 -4 -16 -10 -28 -15 -28 -15 0 -22 49 -11 70 13 25 43 27
37 3z m-72 -110 c-3 -10 -20 -65 -37 -123 -33 -114 -70 -196 -75 -169 -6 24
34 204 52 239 26 50 76 94 60 53z"/>
<path d="M4080 3789 c0 -19 25 -54 95 -129 28 -30 65 -73 84 -95 28 -34 31
-36 18 -10 -36 73 -196 263 -197 234z"/>
<path d="M1915 3446 c-97 -31 -169 -97 -215 -199 -37 -82 -77 -246 -93 -382
l-13 -110 -21 136 c-58 364 -165 515 -384 544 -56 7 -171 -15 -230 -45 -236
-119 -313 -427 -171 -685 30 -56 64 -69 108 -40 30 20 30 36 0 88 -58 100 -77
264 -43 378 45 151 176 253 301 232 55 -9 136 -62 178 -118 112 -147 178 -413
178 -715 0 -104 3 -132 16 -144 19 -20 26 -20 68 -2 40 17 32 -13 91 333 67
397 90 481 154 581 44 67 100 98 157 88 99 -19 126 -171 100 -561 -38 -559
-33 -766 22 -874 36 -71 76 -94 152 -87 41 4 60 11 75 28 19 22 23 23 60 12
165 -50 301 35 407 255 36 73 60 111 73 115 39 11 161 6 219 -9 86 -23 125
-44 176 -95 46 -46 60 -71 149 -263 93 -199 189 -316 308 -373 47 -22 71 -26
132 -26 85 1 134 17 195 65 66 52 140 189 152 281 6 42 5 45 -20 52 -14 3 -39
1 -55 -6 -25 -10 -33 -24 -55 -95 -73 -232 -214 -280 -377 -128 -196 183 -334
606 -509 1563 -18 96 -38 181 -45 189 -15 16 -77 8 -93 -12 -5 -6 -33 -120
-62 -252 -120 -555 -237 -935 -329 -1068 -96 -140 -166 -155 -301 -63 -71 49
-102 56 -138 30 -13 -9 -26 -13 -30 -9 -13 13 -6 512 11 762 18 267 14 383
-18 491 -18 60 -66 119 -112 138 -40 17 -115 17 -168 0z m1254 -575 c55 -300
104 -541 118 -576 4 -11 -6 -11 -49 1 -30 9 -118 18 -201 21 -130 5 -148 8
-144 22 53 178 109 411 192 794 9 43 18 77 20 75 2 -2 31 -153 64 -337z m-896
-901 c41 -29 45 -36 29 -38 -30 -5 -59 14 -78 49 -18 36 -15 36 49 -11z"/>
<path d="M4392 3228 c28 -62 58 -132 67 -155 22 -55 31 -63 31 -27 0 16 -13
57 -30 92 -29 63 -109 202 -116 202 -1 0 20 -51 48 -112z"/>
<path d="M1066 3201 c-18 -7 -19 -24 -21 -377 -1 -317 -5 -391 -23 -527 -23
-163 -65 -358 -101 -461 -28 -79 -22 -86 51 -66 33 9 39 17 58 68 61 161 109
412 130 681 11 152 13 461 4 599 l-7 92 -36 -1 c-20 0 -45 -4 -55 -8z"/>
<path d="M4350 3122 c0 -5 7 -16 16 -23 14 -12 16 -11 13 5 -4 20 -29 35 -29
18z"/>
<path d="M4392 3020 c0 -14 3 -34 8 -45 l9 -20 -1 20 c0 11 -4 31 -8 45 l-8
25 0 -25z"/>
<path d="M4480 2969 c0 -14 14 -65 31 -115 16 -49 36 -111 44 -139 13 -46 14
-47 14 -16 1 43 -21 127 -58 221 -20 50 -30 66 -31 49z"/>
<path d="M152 2611 c-25 -71 -12 -192 49 -436 30 -121 76 -253 123 -355 21
-47 25 -51 25 -27 1 15 -23 89 -53 165 -77 197 -96 285 -120 549 -11 128 -13
135 -24 104z"/>
<path d="M4600 2484 c-110 -23 -109 -22 -103 -42 3 -12 21 -23 54 -31 27 -7
51 -16 54 -20 2 -4 -16 -23 -40 -41 -48 -36 -49 -38 -37 -57 12 -20 184 16
179 37 -2 8 -7 14 -13 13 -5 0 -31 -4 -59 -8 l-50 -7 38 32 c20 17 37 36 37
41 0 5 -20 14 -45 20 -55 14 -50 25 15 34 32 4 50 12 50 20 0 22 -11 23 -80 9z"/>
<path d="M4627 2132 c-59 -24 -87 -40 -85 -50 2 -12 92 -53 171 -78 28 -9 21
25 -8 36 -20 8 -25 16 -25 44 0 26 5 36 20 41 11 3 20 15 20 26 0 10 -1 19 -2
18 -2 0 -43 -17 -91 -37z m33 -47 c0 -28 -6 -30 -47 -14 l-28 11 30 14 c42 18
45 17 45 -11z"/>
<path d="M4530 1866 c0 -8 15 -17 34 -20 33 -6 34 -8 29 -44 -7 -47 -8 -47
-47 -44 -22 2 -35 -2 -39 -11 -4 -10 16 -17 86 -30 50 -9 93 -14 95 -12 11 11
-10 35 -30 35 -38 0 -47 12 -39 50 7 34 9 35 50 33 34 -2 42 1 39 15 -5 27
-178 55 -178 28z"/>
<path d="M4446 1545 c-5 -14 27 -49 111 -119 35 -30 53 -15 22 19 -16 18 -16
23 -4 53 10 24 20 32 38 32 14 0 27 7 31 15 4 13 -10 15 -93 15 -79 0 -100 -3
-105 -15z m108 -37 c-10 -34 -12 -34 -42 -5 l-27 27 38 0 c35 0 38 -2 31 -22z"/>
<path d="M3897 1340 c-33 -26 -43 -70 -23 -108 17 -34 34 -42 81 -42 44 0 74
27 82 72 5 32 1 41 -25 68 -36 36 -77 39 -115 10z"/>
<path d="M4324 1294 c-31 -52 -36 -44 64 -101 50 -28 66 -33 75 -23 9 9 9 14
1 17 -6 2 -20 10 -30 17 -15 12 -16 16 -5 30 7 9 28 16 46 16 18 0 38 7 45 15
11 13 7 15 -29 15 -28 0 -41 4 -41 13 0 23 -35 47 -68 47 -26 0 -35 -7 -58
-46z m90 0 c5 -12 -6 -46 -19 -62 -2 -2 -15 4 -29 13 -22 14 -23 20 -14 41 13
28 52 33 62 8z"/>
<path d="M4166 1079 c-20 -24 -33 -46 -29 -49 5 -4 36 -31 71 -60 34 -29 66
-49 70 -44 4 5 19 23 33 39 15 17 30 40 33 51 8 27 -16 54 -47 54 -13 0 -26 9
-32 23 -18 40 -57 34 -99 -14z m81 -5 c8 -21 -28 -57 -50 -48 -21 8 -22 22 0
46 20 22 42 23 50 2z m63 -52 c0 -19 -29 -52 -45 -52 -6 0 -16 5 -23 12 -9 9
-6 18 14 39 27 28 54 29 54 1z"/>
<path d="M1486 975 c13 -32 140 -69 279 -79 110 -8 79 6 -85 39 -74 15 -149
33 -167 40 -27 11 -31 11 -27 0z"/>
<path d="M3984 895 c-9 -23 45 -187 59 -182 7 2 11 16 9 32 -5 44 53 88 73 55
6 -10 35 -2 35 10 0 7 -153 100 -165 100 -3 0 -8 -7 -11 -15z m86 -63 c0 -10
-22 -32 -31 -32 -6 0 -29 53 -29 67 0 2 14 -3 30 -12 17 -9 30 -19 30 -23z"/>
<path d="M1959 804 c25 -8 67 -16 95 -19 l51 -5 -55 20 c-30 10 -73 19 -95 18
l-40 0 44 -14z"/>
<path d="M2150 755 c14 -17 46 -20 54 -6 7 10 -17 21 -46 21 -17 0 -18 -3 -8
-15z"/>
<path d="M3664 697 c-3 -8 4 -35 15 -60 11 -26 18 -47 14 -47 -3 0 -35 16 -71
36 -78 44 -91 37 -62 -32 12 -27 28 -64 35 -81 10 -23 19 -31 29 -27 13 5 12
12 -4 55 -11 27 -20 52 -20 55 0 3 30 -11 66 -31 88 -49 96 -40 53 64 -32 79
-44 94 -55 68z"/>
<path d="M2535 548 c-21 -91 -21 -91 -6 -96 12 -4 14 1 32 68 l12 45 13 -44
c20 -64 28 -68 60 -27 16 20 32 36 36 36 4 0 0 -23 -8 -51 -13 -42 -13 -53 -3
-60 8 -4 15 -7 17 -5 1 2 13 42 26 89 22 78 22 86 7 92 -11 4 -29 -8 -58 -39
l-43 -44 -9 36 c-5 20 -11 46 -13 57 -2 11 -12 21 -24 23 -18 3 -23 -7 -39
-80z"/>
<path d="M3386 602 c-3 -5 1 -33 8 -63 8 -30 17 -66 20 -81 4 -16 13 -28 21
-28 17 0 18 12 6 60 -6 19 -15 54 -21 78 -10 40 -23 52 -34 34z"/>
<path d="M2865 548 c-2 -13 -6 -53 -7 -90 -3 -66 -3 -67 26 -72 54 -11 96 -7
96 9 0 11 -12 15 -45 15 -41 0 -45 2 -45 25 0 23 4 25 40 25 29 0 40 4 40 15
0 10 -11 15 -35 15 -31 0 -35 3 -35 26 0 26 2 26 45 22 53 -6 65 16 14 26 -62
12 -88 8 -94 -16z"/>
<path d="M3117 564 c-4 -4 -5 -16 -2 -28 2 -12 7 -51 10 -88 5 -49 11 -68 21
-68 9 0 14 11 14 35 0 45 27 47 58 5 13 -16 29 -30 37 -30 21 0 19 13 -6 45
-14 16 -18 29 -12 33 21 14 25 53 9 77 -14 21 -24 25 -70 25 -29 0 -56 -3 -59
-6z m98 -54 c0 -21 -5 -26 -32 -28 -31 -3 -33 -1 -33 28 0 29 2 31 33 28 27
-2 32 -7 32 -28z"/>
</g>
</svg>
